<mxfile host="app.diagrams.net" modified="2021-01-30T07:39:05.136Z" agent="5.0 (Macintosh; Intel Mac OS X 10_14_5) AppleWebKit/537.36 (KHTML, like Gecko) Chrome/88.0.4324.96 Safari/537.36" etag="k6x15XtNgjyZM1ZlLzhO" version="14.2.7" type="github">
  <diagram id="72KEIIUKLtnGTryr8UlC" name="会员互通调用架构">
    <mxGraphModel dx="1149" dy="591" grid="1" gridSize="10" guides="1" tooltips="1" connect="1" arrows="1" fold="1" page="1" pageScale="1" pageWidth="827" pageHeight="1169" math="0" shadow="0">
      <root>
        <mxCell id="0" />
        <mxCell id="1" parent="0" />
        <mxCell id="8y-bNxVx6psB_MU4PvHX-1" value="" style="rounded=0;whiteSpace=wrap;html=1;dashed=1;" vertex="1" parent="1">
          <mxGeometry x="10" y="50" width="230" height="410" as="geometry" />
        </mxCell>
        <mxCell id="8y-bNxVx6psB_MU4PvHX-2" value="下单注册、绑定&lt;br&gt;【fliggy-buy2】" style="rounded=0;whiteSpace=wrap;html=1;fillColor=#E6E6E6;strokeColor=none;" vertex="1" parent="1">
          <mxGeometry x="40" y="80" width="160" height="65" as="geometry" />
        </mxCell>
        <mxCell id="8y-bNxVx6psB_MU4PvHX-3" value="活动页注册、绑定&lt;br&gt;【页匠、店铺注册组件】" style="rounded=0;whiteSpace=wrap;html=1;fillColor=#E6E6E6;strokeColor=none;" vertex="1" parent="1">
          <mxGeometry x="40" y="220" width="160" height="62" as="geometry" />
        </mxCell>
        <mxCell id="8y-bNxVx6psB_MU4PvHX-4" value="活动页积分兑换&lt;br&gt;【页匠】" style="rounded=0;whiteSpace=wrap;html=1;fillColor=#E6E6E6;strokeColor=none;" vertex="1" parent="1">
          <mxGeometry x="40" y="350" width="160" height="61" as="geometry" />
        </mxCell>
        <mxCell id="8y-bNxVx6psB_MU4PvHX-5" value="" style="rounded=0;whiteSpace=wrap;html=1;dashed=1;" vertex="1" parent="1">
          <mxGeometry x="295" y="50" width="310" height="410" as="geometry" />
        </mxCell>
        <mxCell id="8y-bNxVx6psB_MU4PvHX-6" value="" style="shape=flexArrow;endArrow=classic;html=1;width=12;endSize=4.67;" edge="1" parent="1">
          <mxGeometry width="50" height="50" relative="1" as="geometry">
            <mxPoint x="249" y="250.40999999999997" as="sourcePoint" />
            <mxPoint x="289" y="250.40999999999997" as="targetPoint" />
          </mxGeometry>
        </mxCell>
        <mxCell id="8y-bNxVx6psB_MU4PvHX-7" value="" style="rounded=0;whiteSpace=wrap;html=1;fillColor=#d5e8d4;strokeColor=none;" vertex="1" parent="1">
          <mxGeometry x="315" y="80" width="270" height="370" as="geometry" />
        </mxCell>
        <mxCell id="8y-bNxVx6psB_MU4PvHX-8" value="场景" style="rounded=0;whiteSpace=wrap;html=1;fillColor=#E6E6E6;strokeColor=none;" vertex="1" parent="1">
          <mxGeometry x="20" y="40" width="70" height="20" as="geometry" />
        </mxCell>
        <mxCell id="8y-bNxVx6psB_MU4PvHX-9" value="【fliggyffa】" style="rounded=0;whiteSpace=wrap;html=1;fillColor=#D5E8D4;strokeColor=none;align=center;" vertex="1" parent="1">
          <mxGeometry x="319" y="422" width="262" height="20" as="geometry" />
        </mxCell>
        <mxCell id="8y-bNxVx6psB_MU4PvHX-10" value="注册服务" style="rounded=0;whiteSpace=wrap;html=1;fillColor=#97D077;strokeColor=none;" vertex="1" parent="1">
          <mxGeometry x="339" y="110" width="96" height="40" as="geometry" />
        </mxCell>
        <mxCell id="8y-bNxVx6psB_MU4PvHX-11" value="绑定服务" style="rounded=0;whiteSpace=wrap;html=1;fillColor=#97D077;strokeColor=none;" vertex="1" parent="1">
          <mxGeometry x="339" y="231" width="96" height="40" as="geometry" />
        </mxCell>
        <mxCell id="8y-bNxVx6psB_MU4PvHX-12" value="积分兑换服务" style="rounded=0;whiteSpace=wrap;html=1;fillColor=#97D077;strokeColor=none;" vertex="1" parent="1">
          <mxGeometry x="339" y="370" width="96" height="40" as="geometry" />
        </mxCell>
        <mxCell id="8y-bNxVx6psB_MU4PvHX-13" value="扩展点&lt;br&gt;【TMF2】" style="rounded=0;whiteSpace=wrap;html=1;fillColor=#97D077;strokeColor=none;" vertex="1" parent="1">
          <mxGeometry x="499" y="166" width="60" height="186" as="geometry" />
        </mxCell>
        <mxCell id="8y-bNxVx6psB_MU4PvHX-14" value="" style="shape=flexArrow;endArrow=classic;html=1;width=12;endSize=4.67;" edge="1" parent="1">
          <mxGeometry width="50" height="50" relative="1" as="geometry">
            <mxPoint x="445" y="251.90999999999997" as="sourcePoint" />
            <mxPoint x="485" y="251.90999999999997" as="targetPoint" />
          </mxGeometry>
        </mxCell>
        <mxCell id="8y-bNxVx6psB_MU4PvHX-15" value="" style="rounded=0;whiteSpace=wrap;html=1;dashed=1;" vertex="1" parent="1">
          <mxGeometry x="680" y="51" width="370" height="109" as="geometry" />
        </mxCell>
        <mxCell id="8y-bNxVx6psB_MU4PvHX-16" value="标准接口对接" style="rounded=0;whiteSpace=wrap;html=1;fillColor=#E6E6E6;strokeColor=none;" vertex="1" parent="1">
          <mxGeometry x="700" y="41" width="90" height="20" as="geometry" />
        </mxCell>
        <mxCell id="8y-bNxVx6psB_MU4PvHX-17" value="" style="shape=flexArrow;endArrow=classic;html=1;width=12;endSize=4.67;" edge="1" parent="1">
          <mxGeometry width="50" height="50" relative="1" as="geometry">
            <mxPoint x="620" y="85.38" as="sourcePoint" />
            <mxPoint x="660" y="85.38" as="targetPoint" />
          </mxGeometry>
        </mxCell>
        <mxCell id="8y-bNxVx6psB_MU4PvHX-18" value="" style="shape=flexArrow;endArrow=classic;html=1;width=12;endSize=4.67;" edge="1" parent="1">
          <mxGeometry width="50" height="50" relative="1" as="geometry">
            <mxPoint x="620" y="254.5" as="sourcePoint" />
            <mxPoint x="660" y="254.5" as="targetPoint" />
          </mxGeometry>
        </mxCell>
        <mxCell id="8y-bNxVx6psB_MU4PvHX-19" value="" style="rounded=0;whiteSpace=wrap;html=1;dashed=1;" vertex="1" parent="1">
          <mxGeometry x="680" y="180" width="370" height="170" as="geometry" />
        </mxCell>
        <mxCell id="8y-bNxVx6psB_MU4PvHX-20" value="非标接口对接" style="rounded=0;whiteSpace=wrap;html=1;fillColor=#E6E6E6;strokeColor=none;" vertex="1" parent="1">
          <mxGeometry x="700" y="170" width="90" height="20" as="geometry" />
        </mxCell>
        <mxCell id="8y-bNxVx6psB_MU4PvHX-21" value="非行业商家接口对接&lt;br&gt;【ffa-adapter】" style="rounded=0;whiteSpace=wrap;html=1;fillColor=#97D077;strokeColor=none;" vertex="1" parent="1">
          <mxGeometry x="899" y="200" width="130" height="35" as="geometry" />
        </mxCell>
        <mxCell id="8y-bNxVx6psB_MU4PvHX-22" value="" style="rounded=0;whiteSpace=wrap;html=1;dashed=1;" vertex="1" parent="1">
          <mxGeometry x="1130" y="51" width="132" height="409" as="geometry" />
        </mxCell>
        <mxCell id="8y-bNxVx6psB_MU4PvHX-23" value="【商家系统】" style="rounded=0;whiteSpace=wrap;html=1;fillColor=#E6E6E6;strokeColor=none;" vertex="1" parent="1">
          <mxGeometry x="1150" y="73.5" width="90" height="376.5" as="geometry" />
        </mxCell>
        <mxCell id="8y-bNxVx6psB_MU4PvHX-24" value="第三方商家" style="rounded=0;whiteSpace=wrap;html=1;fillColor=#E6E6E6;strokeColor=none;" vertex="1" parent="1">
          <mxGeometry x="1140" y="41" width="70" height="20" as="geometry" />
        </mxCell>
        <mxCell id="8y-bNxVx6psB_MU4PvHX-25" value="酒店行业插件&lt;br&gt;【ffa-hotel-plugin】" style="rounded=0;whiteSpace=wrap;html=1;fillColor=#99CCFF;strokeColor=none;" vertex="1" parent="1">
          <mxGeometry x="700" y="250" width="120" height="40" as="geometry" />
        </mxCell>
        <mxCell id="8y-bNxVx6psB_MU4PvHX-26" value="奇门网关" style="rounded=0;whiteSpace=wrap;html=1;fillColor=#97D077;strokeColor=none;" vertex="1" parent="1">
          <mxGeometry x="700" y="71.75" width="160" height="28.25" as="geometry" />
        </mxCell>
        <mxCell id="8y-bNxVx6psB_MU4PvHX-27" value="top网关" style="rounded=0;whiteSpace=wrap;html=1;fillColor=#97D077;strokeColor=none;" vertex="1" parent="1">
          <mxGeometry x="700" y="115.88" width="330" height="28.25" as="geometry" />
        </mxCell>
        <mxCell id="8y-bNxVx6psB_MU4PvHX-28" value="" style="shape=flexArrow;endArrow=classic;html=1;width=12;endSize=4.67;" edge="1" parent="1">
          <mxGeometry width="50" height="50" relative="1" as="geometry">
            <mxPoint x="1070" y="85.38" as="sourcePoint" />
            <mxPoint x="1110" y="85.38" as="targetPoint" />
          </mxGeometry>
        </mxCell>
        <mxCell id="8y-bNxVx6psB_MU4PvHX-29" value="" style="shape=flexArrow;endArrow=classic;html=1;width=12;endSize=4.67;entryX=0.973;entryY=0.448;entryDx=0;entryDy=0;entryPerimeter=0;" edge="1" parent="1">
          <mxGeometry width="50" height="50" relative="1" as="geometry">
            <mxPoint x="1109.9899999999998" y="130.02999999999997" as="sourcePoint" />
            <mxPoint x="1070" y="130.00199999999995" as="targetPoint" />
          </mxGeometry>
        </mxCell>
        <mxCell id="8y-bNxVx6psB_MU4PvHX-30" value="网关消息" style="rounded=0;whiteSpace=wrap;html=1;fillColor=#97D077;strokeColor=none;" vertex="1" parent="1">
          <mxGeometry x="870" y="71.75" width="160" height="28.25" as="geometry" />
        </mxCell>
        <mxCell id="8y-bNxVx6psB_MU4PvHX-31" value="" style="shape=flexArrow;endArrow=classic;html=1;width=12;endSize=4.67;entryX=0.973;entryY=0.448;entryDx=0;entryDy=0;entryPerimeter=0;" edge="1" parent="1">
          <mxGeometry width="50" height="50" relative="1" as="geometry">
            <mxPoint x="659.9899999999998" y="129.52999999999997" as="sourcePoint" />
            <mxPoint x="620" y="129.50199999999995" as="targetPoint" />
          </mxGeometry>
        </mxCell>
        <mxCell id="8y-bNxVx6psB_MU4PvHX-32" value="" style="rounded=0;whiteSpace=wrap;html=1;dashed=1;" vertex="1" parent="1">
          <mxGeometry x="680" y="370" width="370" height="89" as="geometry" />
        </mxCell>
        <mxCell id="8y-bNxVx6psB_MU4PvHX-33" value="离线文件对接" style="rounded=0;whiteSpace=wrap;html=1;fillColor=#E6E6E6;strokeColor=none;" vertex="1" parent="1">
          <mxGeometry x="700" y="360" width="90" height="20" as="geometry" />
        </mxCell>
        <mxCell id="8y-bNxVx6psB_MU4PvHX-34" value="机票行业插件&lt;br&gt;【ffa-flight-plugin】" style="rounded=0;whiteSpace=wrap;html=1;fillColor=#CCE5FF;strokeColor=none;" vertex="1" parent="1">
          <mxGeometry x="700" y="300" width="120" height="40" as="geometry" />
        </mxCell>
        <mxCell id="8y-bNxVx6psB_MU4PvHX-35" value="酒店接口对接&lt;br&gt;【hmember+hsftp】" style="rounded=0;whiteSpace=wrap;html=1;fillColor=#99CCFF;strokeColor=none;" vertex="1" parent="1">
          <mxGeometry x="900" y="250" width="130" height="40" as="geometry" />
        </mxCell>
        <mxCell id="8y-bNxVx6psB_MU4PvHX-36" value="" style="shape=flexArrow;endArrow=classic;html=1;width=12;endSize=4.67;" edge="1" parent="1">
          <mxGeometry width="50" height="50" relative="1" as="geometry">
            <mxPoint x="841" y="270" as="sourcePoint" />
            <mxPoint x="881" y="270" as="targetPoint" />
          </mxGeometry>
        </mxCell>
        <mxCell id="8y-bNxVx6psB_MU4PvHX-37" value="" style="shape=flexArrow;endArrow=classic;html=1;width=12;endSize=4.67;" edge="1" parent="1">
          <mxGeometry width="50" height="50" relative="1" as="geometry">
            <mxPoint x="842" y="319" as="sourcePoint" />
            <mxPoint x="882" y="319" as="targetPoint" />
          </mxGeometry>
        </mxCell>
        <mxCell id="8y-bNxVx6psB_MU4PvHX-38" value="航空公司接口对接&lt;br&gt;【apc】" style="rounded=0;whiteSpace=wrap;html=1;fillColor=#CCE5FF;strokeColor=none;" vertex="1" parent="1">
          <mxGeometry x="900" y="300" width="131" height="40" as="geometry" />
        </mxCell>
        <mxCell id="8y-bNxVx6psB_MU4PvHX-39" value="" style="shape=flexArrow;endArrow=classic;html=1;width=12;endSize=4.67;" edge="1" parent="1">
          <mxGeometry width="50" height="50" relative="1" as="geometry">
            <mxPoint x="1070" y="259.40999999999997" as="sourcePoint" />
            <mxPoint x="1110" y="259.40999999999997" as="targetPoint" />
          </mxGeometry>
        </mxCell>
        <mxCell id="8y-bNxVx6psB_MU4PvHX-40" value="" style="shape=flexArrow;endArrow=classic;html=1;width=12;endSize=4.67;" edge="1" parent="1">
          <mxGeometry width="50" height="50" relative="1" as="geometry">
            <mxPoint x="1070" y="389.40999999999997" as="sourcePoint" />
            <mxPoint x="1110" y="389.40999999999997" as="targetPoint" />
          </mxGeometry>
        </mxCell>
        <mxCell id="8y-bNxVx6psB_MU4PvHX-41" value="" style="shape=flexArrow;endArrow=classic;html=1;width=12;endSize=4.67;entryX=0.973;entryY=0.448;entryDx=0;entryDy=0;entryPerimeter=0;" edge="1" parent="1">
          <mxGeometry width="50" height="50" relative="1" as="geometry">
            <mxPoint x="1109.9899999999993" y="430.03" as="sourcePoint" />
            <mxPoint x="1070" y="430.00199999999995" as="targetPoint" />
          </mxGeometry>
        </mxCell>
        <mxCell id="8y-bNxVx6psB_MU4PvHX-42" value="文件同步任务&lt;br&gt;【ffabatch】" style="rounded=0;whiteSpace=wrap;html=1;fillColor=#97D077;strokeColor=none;" vertex="1" parent="1">
          <mxGeometry x="700" y="390" width="120" height="60" as="geometry" />
        </mxCell>
        <mxCell id="8y-bNxVx6psB_MU4PvHX-43" value="" style="shape=flexArrow;endArrow=classic;html=1;width=12;endSize=4.67;" edge="1" parent="1">
          <mxGeometry width="50" height="50" relative="1" as="geometry">
            <mxPoint x="846" y="403" as="sourcePoint" />
            <mxPoint x="886" y="403" as="targetPoint" />
          </mxGeometry>
        </mxCell>
        <mxCell id="8y-bNxVx6psB_MU4PvHX-44" value="酒店sftp服务器" style="rounded=0;whiteSpace=wrap;html=1;fillColor=#99CCFF;strokeColor=none;" vertex="1" parent="1">
          <mxGeometry x="901" y="386" width="133" height="29" as="geometry" />
        </mxCell>
        <mxCell id="8y-bNxVx6psB_MU4PvHX-45" value="" style="shape=flexArrow;endArrow=classic;html=1;width=12;endSize=4.67;entryX=0.973;entryY=0.448;entryDx=0;entryDy=0;entryPerimeter=0;" edge="1" parent="1">
          <mxGeometry width="50" height="50" relative="1" as="geometry">
            <mxPoint x="885.9899999999993" y="437.03" as="sourcePoint" />
            <mxPoint x="846" y="437.00199999999995" as="targetPoint" />
          </mxGeometry>
        </mxCell>
        <mxCell id="8y-bNxVx6psB_MU4PvHX-46" value="" style="shape=flexArrow;endArrow=classic;html=1;width=12;endSize=4.67;entryX=0.973;entryY=0.448;entryDx=0;entryDy=0;entryPerimeter=0;" edge="1" parent="1">
          <mxGeometry width="50" height="50" relative="1" as="geometry">
            <mxPoint x="659.9899999999998" y="419.44000000000005" as="sourcePoint" />
            <mxPoint x="620" y="419.41200000000003" as="targetPoint" />
          </mxGeometry>
        </mxCell>
        <mxCell id="8y-bNxVx6psB_MU4PvHX-47" value="绿色--表示会员运营平台owner" style="rounded=0;whiteSpace=wrap;html=1;fillColor=#97D077;strokeColor=none;align=left;" vertex="1" parent="1">
          <mxGeometry x="10" y="480" width="170" height="30" as="geometry" />
        </mxCell>
        <mxCell id="8y-bNxVx6psB_MU4PvHX-48" value="蓝色--表示各行业owner" style="rounded=0;whiteSpace=wrap;html=1;fillColor=#99CCFF;strokeColor=none;align=left;" vertex="1" parent="1">
          <mxGeometry x="10" y="525" width="168" height="30" as="geometry" />
        </mxCell>
        <mxCell id="8y-bNxVx6psB_MU4PvHX-49" value="服务" style="rounded=0;whiteSpace=wrap;html=1;fillColor=#E6E6E6;strokeColor=none;" vertex="1" parent="1">
          <mxGeometry x="319" y="41" width="70" height="20" as="geometry" />
        </mxCell>
        <mxCell id="8y-bNxVx6psB_MU4PvHX-50" value="非行业插件&lt;br&gt;【ffa-other-plugin】" style="rounded=0;whiteSpace=wrap;html=1;fillColor=#97D077;strokeColor=none;" vertex="1" parent="1">
          <mxGeometry x="700" y="200" width="120" height="35" as="geometry" />
        </mxCell>
        <mxCell id="8y-bNxVx6psB_MU4PvHX-51" value="" style="shape=flexArrow;endArrow=classic;html=1;width=12;endSize=4.67;" edge="1" parent="1">
          <mxGeometry width="50" height="50" relative="1" as="geometry">
            <mxPoint x="842" y="217" as="sourcePoint" />
            <mxPoint x="882" y="217" as="targetPoint" />
          </mxGeometry>
        </mxCell>
        <mxCell id="8y-bNxVx6psB_MU4PvHX-52" value="&lt;font style=&quot;font-size: 8px&quot;&gt;非行业商家sftp服务器&lt;br&gt;（暂无需求,要求接口）&lt;/font&gt;" style="rounded=0;whiteSpace=wrap;html=1;fillColor=#97D077;strokeColor=none;" vertex="1" parent="1">
          <mxGeometry x="900" y="418" width="135" height="34" as="geometry" />
        </mxCell>
      </root>
    </mxGraphModel>
  </diagram>
</mxfile>
